<?xml version="1.0" encoding="UTF-8"?>
<svg id="Layer_1" xmlns="http://www.w3.org/2000/svg" version="1.1" xmlns:xlink="http://www.w3.org/1999/xlink" viewBox="0 0 1080 1080">
  <!-- Generator: Adobe Illustrator 29.6.1, SVG Export Plug-In . SVG Version: 2.1.1 Build 9)  -->
  <defs>
    <style>
      .st0 {
        fill: url(#linear-gradient2);
      }

      .st1 {
        fill: url(#linear-gradient1);
      }

      .st2 {
        fill: url(#radial-gradient);
      }

      .st3 {
        font-family: laylaproarabic-Bold, 'layla pro arabic';
        font-size: 48.3px;
        font-weight: 700;
      }

      .st3, .st4 {
        fill: #3a393b;
      }

      .st5 {
        fill: #3aa348;
      }

      .st6 {
        fill: #c92127;
      }

      .st7 {
        fill: url(#linear-gradient);
      }
    </style>
    <linearGradient id="linear-gradient" x1="995.89" y1="359.95" x2="750.03" y2="499.44" gradientUnits="userSpaceOnUse">
      <stop offset="0" stop-color="#89b955"/>
      <stop offset="1" stop-color="#3aa348"/>
    </linearGradient>
    <radialGradient id="radial-gradient" cx="787.87" cy="419.13" fx="787.87" fy="419.13" r="30.76" gradientUnits="userSpaceOnUse">
      <stop offset="0" stop-color="#89b955"/>
      <stop offset=".27" stop-color="#69b04f"/>
      <stop offset=".55" stop-color="#4fa84b"/>
      <stop offset=".8" stop-color="#3fa448"/>
      <stop offset="1" stop-color="#3aa348"/>
    </radialGradient>
    <linearGradient id="linear-gradient1" x1="743.83" y1="453.25" x2="678.5" y2="462.77" xlink:href="#linear-gradient"/>
    <linearGradient id="linear-gradient2" x1="883.68" y1="464.84" x2="682.1" y2="603.25" xlink:href="#linear-gradient"/>
  </defs>
  <g>
    <path class="st7" d="M899.34,442.89c-13.81,17.76-31.18,33.76-51.17,44.42-30.87,16.46-68.99,19.19-92.56-11.25-4.48-5.78-7.17-12-7.17-12-.96-2.96-1.49-4.61-1.05-5.88,2.24-6.4,28.51-1.28,44.14-.58,66.62,2.98,125.84-66.97,135.78-81.32,1.24-1.79,4.97-10.27,7.27-9.82,1.15.23.84,3.38.66,4.29-.77,3.9-4.2,12.89-5.7,17.1-7.14,20.08-17.29,38.41-30.22,55.04Z"/>
    <path class="st2" d="M765.76,440.25c-11.81-12.2-12.22-31.36.43-43.23,16.63-15.6,46.31-8.46,51.85,14.52,7.28,30.22-30.78,50.93-52.28,28.71Z"/>
    <path class="st1" d="M753.39,495.39c-1,.69-2.89-.47-3.39-.77-6.4-3.79-18.36-3.89-39.22-16.74-11.53-7.11-22.01-15.92-31.85-26.7-8.95-9.8-15.94-14.58-18.69-24.32-.57-2.02-.86-3.74-1.02-4.93,1.14.75,3,1.96,5.31,3.42,34.46,21.8,50.06,23.43,66.68,37.28,6.37,5.31,15.21,14.36,22.73,29.64.17,1.08.25,2.57-.54,3.12Z"/>
    <path class="st0" d="M856.94,507.22c-28.05,23.77-62.56,21.59-95.66,30.51-3.73,1.01-7.32,2.25-10.77,3.72-3.45,1.47-11.79,5.01-17.99,10.52-.72.64-3.1,2.81-3.26,2.65-.08-.08.48-.78.95-1.35,1.43-1.98,2.22-4.22,3.64-6.2,1.51-2.11,8.9-11.61,21.15-17.83,27.52-13.98,66.85-6.9,100.55-29.9,4.35-2.97,7.58-5.74,9.33-7.31,3.88-3.12,7.15-5.84,9.63-7.93l-1.59,5.14c-4.62,6.53-9.84,12.78-15.96,17.97Z"/>
    <path class="st6" d="M840.61,539c-28.05,23.77-62.56,21.59-95.66,30.51-3.73,1.01-7.32,2.25-10.77,3.72-3.45,1.47-11.79,5.01-17.99,10.52-.72.64-3.1,2.81-3.26,2.65-.08-.08.48-.78.95-1.35,1.43-1.98,2.22-4.22,3.64-6.2,1.51-2.11,8.9-11.61,21.15-17.83,27.52-13.98,66.85-6.9,100.55-29.9,4.35-2.97,7.58-5.74,9.33-7.31,3.88-3.12,7.15-5.84,9.63-7.93l-1.59,5.14c-4.62,6.53-9.84,12.78-15.96,17.97Z"/>
    <path d="M815.2,576.07c-25.62,19.63-57.14,17.83-87.38,25.19-3.41.83-6.68,1.85-9.84,3.07-3.15,1.21-10.77,4.14-16.43,8.69-.66.53-2.84,2.32-2.98,2.19-.08-.07.44-.65.87-1.11,1.3-1.63,2.03-3.49,3.32-5.12,1.38-1.74,8.13-9.58,19.32-14.72,25.14-11.54,61.06-5.7,91.84-24.69,3.98-2.45,6.93-4.74,8.52-6.03,3.55-2.57,6.53-4.82,8.79-6.55l-1.45,4.25c-4.22,5.39-8.99,10.55-14.58,14.84Z"/>
    <path class="st5" d="M741.41,639.76c2.71,3.45,3.31,3.59,14.69,15.11,4.22,4.28,7.65,7.8,9.85,10.09-9.02-6.3-33.67-24.22-40.5-39.55-1.43-3.21-4.28-11.52-1.89-14.02.79-.82,2.02-1.32,3.86-1.32,4.25-.02,2.52,4.95,2.79,7.98.65,7.22,6.91,16.24,11.19,21.7Z"/>
    <path class="st6" d="M732.51,650.84c3.35,4.04,4.08,4.18,18.09,17.58,5.2,4.97,9.41,9.07,12.13,11.73-11-7.23-41.11-27.82-49.8-45.93-1.82-3.79-5.51-13.63-2.73-16.7.91-1.01,2.37-1.64,4.58-1.72,5.08-.17,3.18,5.83,3.61,9.45,1.02,8.61,8.82,19.19,14.13,25.58Z"/>
    <path d="M719.1,664.11c3.93,3.87,4.71,3.94,20.77,16.5,5.96,4.66,10.8,8.51,13.92,11.01-12.27-6.41-45.93-24.82-56.93-42.86-2.3-3.78-7.19-13.69-4.61-17.19.85-1.15,2.31-1.97,4.61-2.28,5.3-.71,3.94,5.77,4.76,9.52,1.97,8.9,11.24,19.16,17.47,25.3Z"/>
  </g>
  <text class="st3" transform="translate(177.61 547)"><tspan x="0" y="0" xml:space="preserve">  </tspan><tspan x="18.35" y="0">شــــــركة العــــــارف</tspan><tspan x="23.23" y="57.96">لخدمات رجال الاعمال</tspan></text>
  <g>
    <path class="st4" d="M204.67,640.94l-1.02,6.67h-1.94l3.32-20.13h2.74l3.46,20.13h-2.01l-1.09-6.67h-3.46ZM207.87,639.17c-.76-4.67-1.28-8.14-1.46-9.96h-.08c-.07,1.53-.82,6.11-1.39,9.96h2.94Z"/>
    <path class="st4" d="M220.55,627.47h1.92v18.4h5.06l-.23,1.73h-6.75v-20.13Z"/>
    <path class="st4" d="M249.92,640.94l-1.02,6.67h-1.94l3.32-20.13h2.74l3.46,20.13h-2.01l-1.09-6.67h-3.46ZM253.13,639.17c-.76-4.67-1.28-8.14-1.46-9.96h-.08c-.07,1.53-.82,6.11-1.39,9.96h2.94Z"/>
    <path class="st4" d="M267.72,638.11v9.49h-1.92v-20.13h3.33c3.02,0,4.43,1.32,4.43,4.58v.96c0,2.65-.89,3.85-2.05,4.25,1.3.46,1.88,1.44,1.88,4.13,0,1.73-.03,4.93.2,6.22h-1.87c-.25-1.26-.21-4.67-.21-6.06,0-2.64-.38-3.43-2.42-3.43h-1.37ZM267.72,636.47h1.46c1.98,0,2.45-1.22,2.45-3.36v-.94c0-1.9-.54-3.04-2.62-3.04h-1.29v7.35Z"/>
    <path class="st4" d="M285.56,627.47v20.13h-1.92v-20.13h1.92Z"/>
    <path class="st4" d="M296.15,627.47h6.81v1.77h-4.9v6.85h4.61v1.77h-4.61v9.74h-1.92v-20.13Z"/>
    <path class="st4" d="M323.93,627.47h3.36c3.04,0,4.17,1.65,4.17,4.33v.95c0,2.82-.83,3.7-1.87,4.08,1.14.34,2.29,1.35,2.29,4.04v1.48c0,3.53-1.17,5.26-4.57,5.26h-3.38v-20.13ZM327.26,636.07c1.81,0,2.37-.77,2.37-3.2v-.93c0-1.86-.69-2.82-2.48-2.82h-1.34v6.95h1.45ZM325.81,645.97h1.35c2.25,0,2.81-1.09,2.81-3.66v-1.4c0-2.25-.83-3.22-2.76-3.22h-1.4v8.28Z"/>
    <path class="st4" d="M343.56,627.47v15.72c0,1.71.61,2.91,2.19,2.91s2.17-1.1,2.17-2.89v-15.74h1.94v15.66c0,3.1-1.39,4.73-4.14,4.73s-4.06-1.52-4.06-4.67v-15.72h1.92Z"/>
    <path class="st4" d="M361.28,642v1.15c0,1.99.7,3.05,2.17,3.05s2.13-1.02,2.13-3.44-.53-3.37-2.64-5.01c-2.15-1.68-3.23-2.68-3.23-5.64,0-2.53.76-4.92,3.8-4.9,2.83.02,3.67,1.86,3.67,4.5v.9h-1.9v-.85c0-1.73-.35-2.87-1.81-2.87s-1.85,1.29-1.85,2.93c0,1.98.4,2.69,2.26,4.11,2.74,2.08,3.62,3.24,3.62,6.57,0,2.82-.76,5.37-4.08,5.37-3.14,0-4.06-2.07-4.06-4.72v-1.15h1.92Z"/>
    <path class="st4" d="M379.21,627.47v20.13h-1.92v-20.13h1.92Z"/>
    <path class="st4" d="M389.8,647.61v-20.13h2.31c1.15,3.93,4.05,14.63,4.4,16.41h.05c-.11-2.76-.15-5.59-.15-8.87v-7.54h1.82v20.13h-2.24c-1.17-4.1-4.11-15.19-4.53-16.97h-.03c.13,2.42.2,5.75.2,9.39v7.58h-1.83Z"/>
    <path class="st4" d="M415.26,637.73h-4.54v8.12h5.13l-.27,1.76h-6.78v-20.13h6.71v1.77h-4.8v6.72h4.54v1.76Z"/>
    <path class="st4" d="M426.52,642v1.15c0,1.99.7,3.05,2.17,3.05s2.13-1.02,2.13-3.44-.53-3.37-2.64-5.01c-2.15-1.68-3.23-2.68-3.23-5.64,0-2.53.76-4.92,3.8-4.9,2.83.02,3.67,1.86,3.67,4.5v.9h-1.9v-.85c0-1.73-.35-2.87-1.81-2.87s-1.85,1.29-1.85,2.93c0,1.98.4,2.69,2.26,4.11,2.74,2.08,3.62,3.24,3.62,6.57,0,2.82-.76,5.37-4.08,5.37-3.14,0-4.06-2.07-4.06-4.72v-1.15h1.92Z"/>
    <path class="st4" d="M443.9,642v1.15c0,1.99.7,3.05,2.17,3.05s2.13-1.02,2.13-3.44-.53-3.37-2.64-5.01c-2.15-1.68-3.23-2.68-3.23-5.64,0-2.53.76-4.92,3.8-4.9,2.83.02,3.67,1.86,3.67,4.5v.9h-1.9v-.85c0-1.73-.35-2.87-1.81-2.87s-1.85,1.29-1.85,2.93c0,1.98.4,2.69,2.26,4.11,2.74,2.08,3.62,3.24,3.62,6.57,0,2.82-.76,5.37-4.08,5.37-3.14,0-4.06-2.07-4.06-4.72v-1.15h1.92Z"/>
    <path class="st4" d="M469.66,638.99c0-3.75.07-7.67.13-9.78h-.03c-.51,3.35-2.15,12.38-3.27,18.4h-1.9c-.86-5.17-2.55-14.84-3.04-18.41h-.06c.06,2.33.17,6.9.17,10.35v8.06h-1.8v-20.13h2.83c1.18,6.15,2.62,13.91,2.89,16.42h.03c.31-2.43,1.96-10.64,3.13-16.42h2.79v20.13h-1.87v-8.61Z"/>
    <path class="st4" d="M488.54,637.73h-4.54v8.12h5.13l-.27,1.76h-6.78v-20.13h6.71v1.77h-4.8v6.72h4.54v1.76Z"/>
    <path class="st4" d="M498.43,647.61v-20.13h2.31c1.15,3.93,4.05,14.63,4.4,16.41h.05c-.11-2.76-.15-5.59-.15-8.87v-7.54h1.82v20.13h-2.24c-1.17-4.1-4.11-15.19-4.53-16.97h-.03c.13,2.42.2,5.75.2,9.39v7.58h-1.83Z"/>
    <path class="st4" d="M529.9,642v1.15c0,1.99.7,3.05,2.17,3.05s2.13-1.02,2.13-3.44-.53-3.37-2.64-5.01c-2.15-1.68-3.23-2.68-3.23-5.64,0-2.53.76-4.92,3.8-4.9,2.83.02,3.67,1.86,3.67,4.5v.9h-1.9v-.85c0-1.73-.35-2.87-1.81-2.87s-1.85,1.29-1.85,2.93c0,1.98.4,2.69,2.26,4.11,2.74,2.08,3.62,3.24,3.62,6.57,0,2.82-.76,5.37-4.08,5.37-3.14,0-4.06-2.07-4.06-4.72v-1.15h1.92Z"/>
    <path class="st4" d="M552.36,637.73h-4.54v8.12h5.13l-.27,1.76h-6.78v-20.13h6.71v1.77h-4.8v6.72h4.54v1.76Z"/>
    <path class="st4" d="M564.16,638.11v9.49h-1.92v-20.13h3.33c3.02,0,4.43,1.32,4.43,4.58v.96c0,2.65-.89,3.85-2.05,4.25,1.3.46,1.88,1.44,1.88,4.13,0,1.73-.03,4.93.2,6.22h-1.87c-.25-1.26-.21-4.67-.21-6.06,0-2.64-.38-3.43-2.42-3.43h-1.37ZM564.16,636.47h1.46c1.98,0,2.45-1.22,2.45-3.36v-.94c0-1.9-.54-3.04-2.62-3.04h-1.29v7.35Z"/>
    <path class="st4" d="M582.35,647.61l-3.51-20.13h2.07l1.4,9.22c.43,2.84,1.05,6.42,1.24,8.45h.04c.16-1.98.82-5.56,1.23-8.37l1.45-9.3h2.04l-3.54,20.13h-2.42Z"/>
    <path class="st4" d="M599.57,627.47v20.13h-1.92v-20.13h1.92Z"/>
    <path class="st4" d="M617.65,641.89v.66c0,2.62-.48,5.32-3.97,5.32s-3.98-2.5-3.98-5.43v-10.26c0-3.25,1.38-4.96,4-4.96,3.28,0,3.86,2.38,3.86,4.98v.76h-1.95v-.87c0-1.66-.23-3.11-1.95-3.11-1.62,0-2.01,1.3-2.01,3.17v10.41c0,2.19.48,3.59,2.07,3.59,1.68,0,1.96-1.47,1.96-3.46v-.78h1.96Z"/>
    <path class="st4" d="M633.78,637.73h-4.54v8.12h5.13l-.27,1.76h-6.78v-20.13h6.71v1.77h-4.8v6.72h4.54v1.76Z"/>
    <path class="st4" d="M645.03,642v1.15c0,1.99.7,3.05,2.17,3.05s2.13-1.02,2.13-3.44-.53-3.37-2.64-5.01c-2.15-1.68-3.23-2.68-3.23-5.64,0-2.53.76-4.92,3.8-4.9,2.83.02,3.67,1.86,3.67,4.5v.9h-1.9v-.85c0-1.73-.35-2.87-1.81-2.87s-1.85,1.29-1.85,2.93c0,1.98.4,2.69,2.26,4.11,2.74,2.08,3.62,3.24,3.62,6.57,0,2.82-.76,5.37-4.08,5.37-3.14,0-4.06-2.07-4.06-4.72v-1.15h1.92Z"/>
  </g>
</svg>